<svg width="28" height="28" viewBox="0 0 28 28" fill="none" xmlns="http://www.w3.org/2000/svg">
<g clip-path="url(#clip0)">
<path d="M27.9674 5.31283C27.9272 5.26551 27.861 5.24945 27.8045 5.27526C26.9674 5.64663 26.0867 5.91362 25.1796 6.07135C26.1426 5.34695 26.8602 4.34381 27.2281 3.19355C27.2459 3.13849 27.2275 3.07826 27.1825 3.04242C27.1372 3.00657 27.0744 3.00198 27.0248 3.03152C25.9402 3.67476 24.7655 4.12815 23.5318 4.37965C22.4386 3.24517 20.9121 2.59619 19.3323 2.59619C16.1192 2.59619 13.5055 5.20987 13.5055 8.42263C13.5055 8.81121 13.5431 9.19607 13.6177 9.56974C9.16747 9.295 5.00635 7.15852 2.17701 3.68824C2.14805 3.65268 2.10417 3.63289 2.05828 3.63748C2.01269 3.64092 1.97197 3.66673 1.94902 3.70602C1.43283 4.59158 1.1601 5.60476 1.1601 6.63544C1.1601 8.42177 1.97168 10.092 3.35365 11.194C2.64216 11.1086 1.9473 10.8846 1.3207 10.5367C1.27854 10.5129 1.22606 10.5132 1.1839 10.5376C1.14175 10.5617 1.11508 10.6064 1.11393 10.6552L1.11336 10.7297C1.11336 13.2953 2.8039 15.5479 5.2091 16.2958C4.57561 16.3979 3.91832 16.391 3.27221 16.2677C3.22461 16.2588 3.17471 16.2751 3.14201 16.3119C3.10961 16.3486 3.09871 16.3999 3.11362 16.4464C3.83487 18.6975 5.83886 20.2763 8.1715 20.473C6.22572 21.8985 3.92577 22.6496 1.49563 22.6496C1.04797 22.6496 0.597159 22.6229 0.155523 22.571C0.092432 22.5639 0.0299147 22.6014 0.00811973 22.6619C-0.0136753 22.723 0.00955361 22.7913 0.0640412 22.826C2.69378 24.5125 5.73447 25.4035 8.85776 25.4035C19.0742 25.4035 25.1791 17.1048 25.1791 9.08193C25.1791 8.85853 25.1748 8.63628 25.1659 8.4146C26.268 7.60847 27.214 6.62167 27.9769 5.47944C28.011 5.4284 28.0073 5.36043 27.9674 5.31283Z" fill="black"/>
</g>
<defs>
<clipPath id="clip0">
<rect width="28" height="28" fill="white"/>
</clipPath>
</defs>
</svg>
